<?xml version="1.0" encoding="UTF-8"?>
<svg width="1500px" height="224px" viewBox="0 0 1500 224" version="1.1" xmlns="http://www.w3.org/2000/svg" xmlns:xlink="http://www.w3.org/1999/xlink">
    <!-- Generator: Sketch 61.1 (89650) - https://sketch.com -->
    <title>landing-dots</title>
    <desc>Created with Sketch.</desc>
    <g id="Page-1" stroke="none" stroke-width="1" fill="none" fill-rule="evenodd">
        <g id="landing-dots" fill="#333333" fill-rule="nonzero">
            <circle id="Oval" transform="translate(750.000000, 2.000000) rotate(90.000000) translate(-750.000000, -2.000000) " cx="750" cy="2" r="2"></circle>
            <circle id="Oval" transform="translate(706.000000, 2.000000) rotate(90.000000) translate(-706.000000, -2.000000) " cx="706" cy="2" r="2"></circle>
            <circle id="Oval" transform="translate(662.000000, 2.000000) rotate(90.000000) translate(-662.000000, -2.000000) " cx="662" cy="2" r="2"></circle>
            <circle id="Oval" transform="translate(618.000000, 2.000000) rotate(90.000000) translate(-618.000000, -2.000000) " cx="618" cy="2" r="2"></circle>
            <circle id="Oval" transform="translate(574.000000, 2.000000) rotate(90.000000) translate(-574.000000, -2.000000) " cx="574" cy="2" r="2"></circle>
            <circle id="Oval" transform="translate(530.000000, 2.000000) rotate(90.000000) translate(-530.000000, -2.000000) " cx="530" cy="2" r="2"></circle>
            <circle id="Oval" transform="translate(486.000000, 2.000000) rotate(90.000000) translate(-486.000000, -2.000000) " cx="486" cy="2" r="2"></circle>
            <circle id="Oval" transform="translate(442.000000, 2.000000) rotate(90.000000) translate(-442.000000, -2.000000) " cx="442" cy="2" r="2"></circle>
            <circle id="Oval" transform="translate(398.000000, 2.000000) rotate(90.000000) translate(-398.000000, -2.000000) " cx="398" cy="2" r="2"></circle>
            <circle id="Oval" transform="translate(354.000000, 2.000000) rotate(90.000000) translate(-354.000000, -2.000000) " cx="354" cy="2" r="2"></circle>
            <circle id="Oval" transform="translate(310.000000, 2.000000) rotate(90.000000) translate(-310.000000, -2.000000) " cx="310" cy="2" r="2"></circle>
            <circle id="Oval" transform="translate(266.000000, 2.000000) rotate(90.000000) translate(-266.000000, -2.000000) " cx="266" cy="2" r="2"></circle>
            <circle id="Oval" transform="translate(222.000000, 2.000000) rotate(90.000000) translate(-222.000000, -2.000000) " cx="222" cy="2" r="2"></circle>
            <circle id="Oval" transform="translate(178.000000, 2.000000) rotate(90.000000) translate(-178.000000, -2.000000) " cx="178" cy="2" r="2"></circle>
            <circle id="Oval" transform="translate(134.000000, 2.000000) rotate(90.000000) translate(-134.000000, -2.000000) " cx="134" cy="2" r="2"></circle>
            <circle id="Oval" transform="translate(90.000000, 2.000000) rotate(90.000000) translate(-90.000000, -2.000000) " cx="90" cy="2" r="2"></circle>
            <circle id="Oval" transform="translate(46.000000, 2.000000) rotate(90.000000) translate(-46.000000, -2.000000) " cx="46" cy="2" r="2"></circle>
            <circle id="Oval" transform="translate(2.000000, 2.000000) rotate(90.000000) translate(-2.000000, -2.000000) " cx="2" cy="2" r="2"></circle>
            <circle id="Oval" transform="translate(750.000000, 46.000000) rotate(90.000000) translate(-750.000000, -46.000000) " cx="750" cy="46" r="2"></circle>
            <circle id="Oval" transform="translate(706.000000, 46.000000) rotate(90.000000) translate(-706.000000, -46.000000) " cx="706" cy="46" r="2"></circle>
            <circle id="Oval" transform="translate(662.000000, 46.000000) rotate(90.000000) translate(-662.000000, -46.000000) " cx="662" cy="46" r="2"></circle>
            <circle id="Oval" transform="translate(618.000000, 46.000000) rotate(90.000000) translate(-618.000000, -46.000000) " cx="618" cy="46" r="2"></circle>
            <circle id="Oval" transform="translate(574.000000, 46.000000) rotate(90.000000) translate(-574.000000, -46.000000) " cx="574" cy="46" r="2"></circle>
            <circle id="Oval" transform="translate(530.000000, 46.000000) rotate(90.000000) translate(-530.000000, -46.000000) " cx="530" cy="46" r="2"></circle>
            <circle id="Oval" transform="translate(486.000000, 46.000000) rotate(90.000000) translate(-486.000000, -46.000000) " cx="486" cy="46" r="2"></circle>
            <circle id="Oval" transform="translate(442.000000, 46.000000) rotate(90.000000) translate(-442.000000, -46.000000) " cx="442" cy="46" r="2"></circle>
            <circle id="Oval" transform="translate(398.000000, 46.000000) rotate(90.000000) translate(-398.000000, -46.000000) " cx="398" cy="46" r="2"></circle>
            <circle id="Oval" transform="translate(354.000000, 46.000000) rotate(90.000000) translate(-354.000000, -46.000000) " cx="354" cy="46" r="2"></circle>
            <circle id="Oval" transform="translate(310.000000, 46.000000) rotate(90.000000) translate(-310.000000, -46.000000) " cx="310" cy="46" r="2"></circle>
            <circle id="Oval" transform="translate(266.000000, 46.000000) rotate(90.000000) translate(-266.000000, -46.000000) " cx="266" cy="46" r="2"></circle>
            <circle id="Oval" transform="translate(222.000000, 46.000000) rotate(90.000000) translate(-222.000000, -46.000000) " cx="222" cy="46" r="2"></circle>
            <circle id="Oval" transform="translate(178.000000, 46.000000) rotate(90.000000) translate(-178.000000, -46.000000) " cx="178" cy="46" r="2"></circle>
            <circle id="Oval" transform="translate(134.000000, 46.000000) rotate(90.000000) translate(-134.000000, -46.000000) " cx="134" cy="46" r="2"></circle>
            <circle id="Oval" transform="translate(90.000000, 46.000000) rotate(90.000000) translate(-90.000000, -46.000000) " cx="90" cy="46" r="2"></circle>
            <circle id="Oval" transform="translate(46.000000, 46.000000) rotate(90.000000) translate(-46.000000, -46.000000) " cx="46" cy="46" r="2"></circle>
            <circle id="Oval" transform="translate(2.000000, 46.000000) rotate(90.000000) translate(-2.000000, -46.000000) " cx="2" cy="46" r="2"></circle>
            <circle id="Oval" transform="translate(750.000000, 90.000000) rotate(90.000000) translate(-750.000000, -90.000000) " cx="750" cy="90" r="2"></circle>
            <circle id="Oval" transform="translate(706.000000, 90.000000) rotate(90.000000) translate(-706.000000, -90.000000) " cx="706" cy="90" r="2"></circle>
            <circle id="Oval" transform="translate(662.000000, 90.000000) rotate(90.000000) translate(-662.000000, -90.000000) " cx="662" cy="90" r="2"></circle>
            <circle id="Oval" transform="translate(618.000000, 90.000000) rotate(90.000000) translate(-618.000000, -90.000000) " cx="618" cy="90" r="2"></circle>
            <circle id="Oval" transform="translate(574.000000, 90.000000) rotate(90.000000) translate(-574.000000, -90.000000) " cx="574" cy="90" r="2"></circle>
            <circle id="Oval" transform="translate(530.000000, 90.000000) rotate(90.000000) translate(-530.000000, -90.000000) " cx="530" cy="90" r="2"></circle>
            <circle id="Oval" transform="translate(486.000000, 90.000000) rotate(90.000000) translate(-486.000000, -90.000000) " cx="486" cy="90" r="2"></circle>
            <circle id="Oval" transform="translate(442.000000, 90.000000) rotate(90.000000) translate(-442.000000, -90.000000) " cx="442" cy="90" r="2"></circle>
            <circle id="Oval" transform="translate(398.000000, 90.000000) rotate(90.000000) translate(-398.000000, -90.000000) " cx="398" cy="90" r="2"></circle>
            <circle id="Oval" transform="translate(354.000000, 90.000000) rotate(90.000000) translate(-354.000000, -90.000000) " cx="354" cy="90" r="2"></circle>
            <circle id="Oval" transform="translate(310.000000, 90.000000) rotate(90.000000) translate(-310.000000, -90.000000) " cx="310" cy="90" r="2"></circle>
            <circle id="Oval" transform="translate(266.000000, 90.000000) rotate(90.000000) translate(-266.000000, -90.000000) " cx="266" cy="90" r="2"></circle>
            <circle id="Oval" transform="translate(222.000000, 90.000000) rotate(90.000000) translate(-222.000000, -90.000000) " cx="222" cy="90" r="2"></circle>
            <circle id="Oval" transform="translate(178.000000, 90.000000) rotate(90.000000) translate(-178.000000, -90.000000) " cx="178" cy="90" r="2"></circle>
            <circle id="Oval" transform="translate(134.000000, 90.000000) rotate(90.000000) translate(-134.000000, -90.000000) " cx="134" cy="90" r="2"></circle>
            <circle id="Oval" transform="translate(90.000000, 90.000000) rotate(90.000000) translate(-90.000000, -90.000000) " cx="90" cy="90" r="2"></circle>
            <circle id="Oval" transform="translate(46.000000, 90.000000) rotate(90.000000) translate(-46.000000, -90.000000) " cx="46" cy="90" r="2"></circle>
            <circle id="Oval" transform="translate(2.000000, 90.000000) rotate(90.000000) translate(-2.000000, -90.000000) " cx="2" cy="90" r="2"></circle>
            <circle id="Oval" transform="translate(398.000000, 134.000000) rotate(90.000000) translate(-398.000000, -134.000000) " cx="398" cy="134" r="2"></circle>
            <circle id="Oval" transform="translate(354.000000, 134.000000) rotate(90.000000) translate(-354.000000, -134.000000) " cx="354" cy="134" r="2"></circle>
            <circle id="Oval" transform="translate(310.000000, 134.000000) rotate(90.000000) translate(-310.000000, -134.000000) " cx="310" cy="134" r="2"></circle>
            <circle id="Oval" transform="translate(266.000000, 134.000000) rotate(90.000000) translate(-266.000000, -134.000000) " cx="266" cy="134" r="2"></circle>
            <circle id="Oval" transform="translate(222.000000, 134.000000) rotate(90.000000) translate(-222.000000, -134.000000) " cx="222" cy="134" r="2"></circle>
            <circle id="Oval" transform="translate(178.000000, 134.000000) rotate(90.000000) translate(-178.000000, -134.000000) " cx="178" cy="134" r="2"></circle>
            <circle id="Oval" transform="translate(134.000000, 134.000000) rotate(90.000000) translate(-134.000000, -134.000000) " cx="134" cy="134" r="2"></circle>
            <circle id="Oval" transform="translate(90.000000, 134.000000) rotate(90.000000) translate(-90.000000, -134.000000) " cx="90" cy="134" r="2"></circle>
            <circle id="Oval" transform="translate(46.000000, 134.000000) rotate(90.000000) translate(-46.000000, -134.000000) " cx="46" cy="134" r="2"></circle>
            <circle id="Oval" transform="translate(2.000000, 134.000000) rotate(90.000000) translate(-2.000000, -134.000000) " cx="2" cy="134" r="2"></circle>
            <circle id="Oval" transform="translate(310.000000, 178.000000) rotate(90.000000) translate(-310.000000, -178.000000) " cx="310" cy="178" r="2"></circle>
            <circle id="Oval" transform="translate(266.000000, 178.000000) rotate(90.000000) translate(-266.000000, -178.000000) " cx="266" cy="178" r="2"></circle>
            <circle id="Oval" transform="translate(222.000000, 178.000000) rotate(90.000000) translate(-222.000000, -178.000000) " cx="222" cy="178" r="2"></circle>
            <circle id="Oval" transform="translate(178.000000, 178.000000) rotate(90.000000) translate(-178.000000, -178.000000) " cx="178" cy="178" r="2"></circle>
            <circle id="Oval" transform="translate(134.000000, 178.000000) rotate(90.000000) translate(-134.000000, -178.000000) " cx="134" cy="178" r="2"></circle>
            <circle id="Oval" transform="translate(90.000000, 178.000000) rotate(90.000000) translate(-90.000000, -178.000000) " cx="90" cy="178" r="2"></circle>
            <circle id="Oval" transform="translate(46.000000, 178.000000) rotate(90.000000) translate(-46.000000, -178.000000) " cx="46" cy="178" r="2"></circle>
            <circle id="Oval" transform="translate(2.000000, 178.000000) rotate(90.000000) translate(-2.000000, -178.000000) " cx="2" cy="178" r="2"></circle>
            <circle id="Oval" transform="translate(134.000000, 222.000000) rotate(90.000000) translate(-134.000000, -222.000000) " cx="134" cy="222" r="2"></circle>
            <circle id="Oval" transform="translate(90.000000, 222.000000) rotate(90.000000) translate(-90.000000, -222.000000) " cx="90" cy="222" r="2"></circle>
            <circle id="Oval" transform="translate(46.000000, 222.000000) rotate(90.000000) translate(-46.000000, -222.000000) " cx="46" cy="222" r="2"></circle>
            <circle id="Oval" transform="translate(2.000000, 222.000000) rotate(90.000000) translate(-2.000000, -222.000000) " cx="2" cy="222" r="2"></circle>
            <circle id="Oval" transform="translate(750.000000, 2.000000) scale(-1, 1) rotate(89.999997) translate(-750.000000, -2.000000) " cx="750" cy="2" r="2"></circle>
            <circle id="Oval" transform="translate(794.000000, 2.000000) scale(-1, 1) rotate(89.999997) translate(-794.000000, -2.000000) " cx="794" cy="2" r="2"></circle>
            <circle id="Oval" transform="translate(838.000000, 2.000000) scale(-1, 1) rotate(89.999997) translate(-838.000000, -2.000000) " cx="838" cy="2" r="2"></circle>
            <circle id="Oval" transform="translate(882.000000, 2.000000) scale(-1, 1) rotate(89.999997) translate(-882.000000, -2.000000) " cx="882" cy="2" r="2"></circle>
            <circle id="Oval" transform="translate(926.000000, 2.000000) scale(-1, 1) rotate(89.999997) translate(-926.000000, -2.000000) " cx="926" cy="2" r="2"></circle>
            <circle id="Oval" transform="translate(970.000000, 2.000000) scale(-1, 1) rotate(89.999997) translate(-970.000000, -2.000000) " cx="970" cy="2" r="2"></circle>
            <circle id="Oval" transform="translate(1014.000000, 2.000000) scale(-1, 1) rotate(89.999997) translate(-1014.000000, -2.000000) " cx="1014" cy="2" r="2"></circle>
            <circle id="Oval" transform="translate(1058.000000, 2.000000) scale(-1, 1) rotate(89.999997) translate(-1058.000000, -2.000000) " cx="1058" cy="2" r="2"></circle>
            <circle id="Oval" transform="translate(1102.000000, 2.000000) scale(-1, 1) rotate(89.999997) translate(-1102.000000, -2.000000) " cx="1102" cy="2" r="2"></circle>
            <circle id="Oval" transform="translate(1146.000000, 2.000000) scale(-1, 1) rotate(89.999997) translate(-1146.000000, -2.000000) " cx="1146" cy="2" r="2"></circle>
            <circle id="Oval" transform="translate(1190.000000, 2.000000) scale(-1, 1) rotate(89.999997) translate(-1190.000000, -2.000000) " cx="1190" cy="2" r="2"></circle>
            <circle id="Oval" transform="translate(1234.000000, 2.000000) scale(-1, 1) rotate(89.999997) translate(-1234.000000, -2.000000) " cx="1234" cy="2" r="2"></circle>
            <circle id="Oval" transform="translate(1278.000000, 2.000000) scale(-1, 1) rotate(89.999997) translate(-1278.000000, -2.000000) " cx="1278" cy="2" r="2"></circle>
            <circle id="Oval" transform="translate(1322.000000, 2.000000) scale(-1, 1) rotate(89.999997) translate(-1322.000000, -2.000000) " cx="1322" cy="2" r="2"></circle>
            <circle id="Oval" transform="translate(1366.000000, 2.000000) scale(-1, 1) rotate(89.999997) translate(-1366.000000, -2.000000) " cx="1366" cy="2" r="2"></circle>
            <circle id="Oval" transform="translate(1410.000000, 2.000000) scale(-1, 1) rotate(89.999997) translate(-1410.000000, -2.000000) " cx="1410" cy="2" r="2"></circle>
            <circle id="Oval" transform="translate(1454.000000, 2.000000) scale(-1, 1) rotate(89.999997) translate(-1454.000000, -2.000000) " cx="1454" cy="2" r="2"></circle>
            <circle id="Oval" transform="translate(1498.000000, 2.000000) scale(-1, 1) rotate(89.999997) translate(-1498.000000, -2.000000) " cx="1498" cy="2" r="2"></circle>
            <circle id="Oval" transform="translate(750.000000, 46.000000) scale(-1, 1) rotate(89.999997) translate(-750.000000, -46.000000) " cx="750" cy="46" r="2"></circle>
            <circle id="Oval" transform="translate(794.000000, 46.000000) scale(-1, 1) rotate(89.999997) translate(-794.000000, -46.000000) " cx="794" cy="46" r="2"></circle>
            <circle id="Oval" transform="translate(838.000000, 46.000000) scale(-1, 1) rotate(89.999997) translate(-838.000000, -46.000000) " cx="838" cy="46" r="2"></circle>
            <circle id="Oval" transform="translate(882.000000, 46.000000) scale(-1, 1) rotate(89.999997) translate(-882.000000, -46.000000) " cx="882" cy="46" r="2"></circle>
            <circle id="Oval" transform="translate(926.000000, 46.000000) scale(-1, 1) rotate(89.999997) translate(-926.000000, -46.000000) " cx="926" cy="46" r="2"></circle>
            <circle id="Oval" transform="translate(970.000000, 46.000000) scale(-1, 1) rotate(89.999997) translate(-970.000000, -46.000000) " cx="970" cy="46" r="2"></circle>
            <circle id="Oval" transform="translate(1014.000000, 46.000000) scale(-1, 1) rotate(89.999997) translate(-1014.000000, -46.000000) " cx="1014" cy="46" r="2"></circle>
            <circle id="Oval" transform="translate(1058.000000, 46.000000) scale(-1, 1) rotate(89.999997) translate(-1058.000000, -46.000000) " cx="1058" cy="46" r="2"></circle>
            <circle id="Oval" transform="translate(1102.000000, 46.000000) scale(-1, 1) rotate(89.999997) translate(-1102.000000, -46.000000) " cx="1102" cy="46" r="2"></circle>
            <circle id="Oval" transform="translate(1146.000000, 46.000000) scale(-1, 1) rotate(89.999997) translate(-1146.000000, -46.000000) " cx="1146" cy="46" r="2"></circle>
            <circle id="Oval" transform="translate(1190.000000, 46.000000) scale(-1, 1) rotate(89.999997) translate(-1190.000000, -46.000000) " cx="1190" cy="46" r="2"></circle>
            <circle id="Oval" transform="translate(1234.000000, 46.000000) scale(-1, 1) rotate(89.999997) translate(-1234.000000, -46.000000) " cx="1234" cy="46" r="2"></circle>
            <circle id="Oval" transform="translate(1278.000000, 46.000000) scale(-1, 1) rotate(89.999997) translate(-1278.000000, -46.000000) " cx="1278" cy="46" r="2"></circle>
            <circle id="Oval" transform="translate(1322.000000, 46.000000) scale(-1, 1) rotate(89.999997) translate(-1322.000000, -46.000000) " cx="1322" cy="46" r="2"></circle>
            <circle id="Oval" transform="translate(1366.000000, 46.000000) scale(-1, 1) rotate(89.999997) translate(-1366.000000, -46.000000) " cx="1366" cy="46" r="2"></circle>
            <circle id="Oval" transform="translate(1410.000000, 46.000000) scale(-1, 1) rotate(89.999997) translate(-1410.000000, -46.000000) " cx="1410" cy="46" r="2"></circle>
            <circle id="Oval" transform="translate(1454.000000, 46.000000) scale(-1, 1) rotate(89.999997) translate(-1454.000000, -46.000000) " cx="1454" cy="46" r="2"></circle>
            <circle id="Oval" transform="translate(1498.000000, 46.000000) scale(-1, 1) rotate(89.999997) translate(-1498.000000, -46.000000) " cx="1498" cy="46" r="2"></circle>
            <circle id="Oval" transform="translate(750.000000, 90.000000) scale(-1, 1) rotate(89.999997) translate(-750.000000, -90.000000) " cx="750" cy="90" r="2"></circle>
            <circle id="Oval" transform="translate(794.000000, 90.000000) scale(-1, 1) rotate(89.999997) translate(-794.000000, -90.000000) " cx="794" cy="90" r="2"></circle>
            <circle id="Oval" transform="translate(838.000000, 90.000000) scale(-1, 1) rotate(89.999997) translate(-838.000000, -90.000000) " cx="838" cy="90" r="2"></circle>
            <circle id="Oval" transform="translate(882.000000, 90.000000) scale(-1, 1) rotate(89.999997) translate(-882.000000, -90.000000) " cx="882" cy="90" r="2"></circle>
            <circle id="Oval" transform="translate(926.000000, 90.000000) scale(-1, 1) rotate(89.999997) translate(-926.000000, -90.000000) " cx="926" cy="90" r="2"></circle>
            <circle id="Oval" transform="translate(970.000000, 90.000000) scale(-1, 1) rotate(89.999997) translate(-970.000000, -90.000000) " cx="970" cy="90" r="2"></circle>
            <circle id="Oval" transform="translate(1014.000000, 90.000000) scale(-1, 1) rotate(89.999997) translate(-1014.000000, -90.000000) " cx="1014" cy="90" r="2"></circle>
            <circle id="Oval" transform="translate(1058.000000, 90.000000) scale(-1, 1) rotate(89.999997) translate(-1058.000000, -90.000000) " cx="1058" cy="90" r="2"></circle>
            <circle id="Oval" transform="translate(1102.000000, 90.000000) scale(-1, 1) rotate(89.999997) translate(-1102.000000, -90.000000) " cx="1102" cy="90" r="2"></circle>
            <circle id="Oval" transform="translate(1146.000000, 90.000000) scale(-1, 1) rotate(89.999997) translate(-1146.000000, -90.000000) " cx="1146" cy="90" r="2"></circle>
            <circle id="Oval" transform="translate(1190.000000, 90.000000) scale(-1, 1) rotate(89.999997) translate(-1190.000000, -90.000000) " cx="1190" cy="90" r="2"></circle>
            <circle id="Oval" transform="translate(1234.000000, 90.000000) scale(-1, 1) rotate(89.999997) translate(-1234.000000, -90.000000) " cx="1234" cy="90" r="2"></circle>
            <circle id="Oval" transform="translate(1278.000000, 90.000000) scale(-1, 1) rotate(89.999997) translate(-1278.000000, -90.000000) " cx="1278" cy="90" r="2"></circle>
            <circle id="Oval" transform="translate(1322.000000, 90.000000) scale(-1, 1) rotate(89.999997) translate(-1322.000000, -90.000000) " cx="1322" cy="90" r="2"></circle>
            <circle id="Oval" transform="translate(1366.000000, 90.000000) scale(-1, 1) rotate(89.999997) translate(-1366.000000, -90.000000) " cx="1366" cy="90" r="2"></circle>
            <circle id="Oval" transform="translate(1410.000000, 90.000000) scale(-1, 1) rotate(89.999997) translate(-1410.000000, -90.000000) " cx="1410" cy="90" r="2"></circle>
            <circle id="Oval" transform="translate(1454.000000, 90.000000) scale(-1, 1) rotate(89.999997) translate(-1454.000000, -90.000000) " cx="1454" cy="90" r="2"></circle>
            <circle id="Oval" transform="translate(1498.000000, 90.000000) scale(-1, 1) rotate(89.999997) translate(-1498.000000, -90.000000) " cx="1498" cy="90" r="2"></circle>
            <circle id="Oval" transform="translate(1102.000000, 134.000000) scale(-1, 1) rotate(89.999997) translate(-1102.000000, -134.000000) " cx="1102" cy="134" r="2"></circle>
            <circle id="Oval" transform="translate(1146.000000, 134.000000) scale(-1, 1) rotate(89.999997) translate(-1146.000000, -134.000000) " cx="1146" cy="134" r="2"></circle>
            <circle id="Oval" transform="translate(1190.000000, 134.000000) scale(-1, 1) rotate(89.999997) translate(-1190.000000, -134.000000) " cx="1190" cy="134" r="2"></circle>
            <circle id="Oval" transform="translate(1234.000000, 134.000000) scale(-1, 1) rotate(89.999997) translate(-1234.000000, -134.000000) " cx="1234" cy="134" r="2"></circle>
            <circle id="Oval" transform="translate(1278.000000, 134.000000) scale(-1, 1) rotate(89.999997) translate(-1278.000000, -134.000000) " cx="1278" cy="134" r="2"></circle>
            <circle id="Oval" transform="translate(1322.000000, 134.000000) scale(-1, 1) rotate(89.999997) translate(-1322.000000, -134.000000) " cx="1322" cy="134" r="2"></circle>
            <circle id="Oval" transform="translate(1366.000000, 134.000000) scale(-1, 1) rotate(89.999997) translate(-1366.000000, -134.000000) " cx="1366" cy="134" r="2"></circle>
            <circle id="Oval" transform="translate(1410.000000, 134.000000) scale(-1, 1) rotate(89.999997) translate(-1410.000000, -134.000000) " cx="1410" cy="134" r="2"></circle>
            <circle id="Oval" transform="translate(1454.000000, 134.000000) scale(-1, 1) rotate(89.999997) translate(-1454.000000, -134.000000) " cx="1454" cy="134" r="2"></circle>
            <circle id="Oval" transform="translate(1498.000000, 134.000000) scale(-1, 1) rotate(89.999997) translate(-1498.000000, -134.000000) " cx="1498" cy="134" r="2"></circle>
            <circle id="Oval" transform="translate(1190.000000, 178.000000) scale(-1, 1) rotate(89.999997) translate(-1190.000000, -178.000000) " cx="1190" cy="178" r="2"></circle>
            <circle id="Oval" transform="translate(1234.000000, 178.000000) scale(-1, 1) rotate(89.999997) translate(-1234.000000, -178.000000) " cx="1234" cy="178" r="2"></circle>
            <circle id="Oval" transform="translate(1278.000000, 178.000000) scale(-1, 1) rotate(89.999997) translate(-1278.000000, -178.000000) " cx="1278" cy="178" r="2"></circle>
            <circle id="Oval" transform="translate(1322.000000, 178.000000) scale(-1, 1) rotate(89.999997) translate(-1322.000000, -178.000000) " cx="1322" cy="178" r="2"></circle>
            <circle id="Oval" transform="translate(1366.000000, 178.000000) scale(-1, 1) rotate(89.999997) translate(-1366.000000, -178.000000) " cx="1366" cy="178" r="2"></circle>
            <circle id="Oval" transform="translate(1410.000000, 178.000000) scale(-1, 1) rotate(89.999997) translate(-1410.000000, -178.000000) " cx="1410" cy="178" r="2"></circle>
            <circle id="Oval" transform="translate(1454.000000, 178.000000) scale(-1, 1) rotate(89.999997) translate(-1454.000000, -178.000000) " cx="1454" cy="178" r="2"></circle>
            <circle id="Oval" transform="translate(1498.000000, 178.000000) scale(-1, 1) rotate(89.999997) translate(-1498.000000, -178.000000) " cx="1498" cy="178" r="2"></circle>
            <circle id="Oval" transform="translate(1366.000000, 222.000000) scale(-1, 1) rotate(89.999997) translate(-1366.000000, -222.000000) " cx="1366" cy="222" r="2"></circle>
            <circle id="Oval" transform="translate(1410.000000, 222.000000) scale(-1, 1) rotate(89.999997) translate(-1410.000000, -222.000000) " cx="1410" cy="222" r="2"></circle>
            <circle id="Oval" transform="translate(1454.000000, 222.000000) scale(-1, 1) rotate(89.999997) translate(-1454.000000, -222.000000) " cx="1454" cy="222" r="2"></circle>
            <circle id="Oval" transform="translate(1498.000000, 222.000000) scale(-1, 1) rotate(89.999997) translate(-1498.000000, -222.000000) " cx="1498" cy="222" r="2"></circle>
        </g>
    </g>
</svg>